<svg width="156" height="36" viewBox="0 0 156 36" fill="none" xmlns="http://www.w3.org/2000/svg">
<path d="M19.5731 16.2001C19.582 16.2 19.591 16.2 19.6 16.2C22.5824 16.2 25 18.6176 25 21.6C25 24.5824 22.5824 27 19.6 27H7C3.6863 27 1 24.3137 1 21C1 17.8804 3.38078 15.3169 6.4245 15.0272M19.5731 16.2001C19.5909 16.0024 19.6 15.8023 19.6 15.6C19.6 11.9549 16.6451 9 13 9C9.54789 9 6.7148 11.6503 6.4245 15.0272M19.5731 16.2001C19.4504 17.5614 18.9143 18.8035 18.0914 19.8L19.5731 16.2001ZM6.4245 15.0272C6.61391 15.0092 6.80588 15 7 15C8.35098 15 9.59769 15.4465 10.6006 16.2" fill="#286EB4"/>
<path d="M19.5731 16.2001C19.582 16.2 19.591 16.2 19.6 16.2C22.5824 16.2 25 18.6176 25 21.6C25 24.5824 22.5824 27 19.6 27H7C3.6863 27 1 24.3137 1 21C1 17.8804 3.38078 15.3169 6.4245 15.0272M19.5731 16.2001C19.5909 16.0024 19.6 15.8023 19.6 15.6C19.6 11.9549 16.6451 9 13 9C9.54789 9 6.7148 11.6503 6.4245 15.0272M19.5731 16.2001C19.4504 17.5614 18.9143 18.8035 18.0914 19.8M6.4245 15.0272C6.61391 15.0092 6.80588 15 7 15C8.35098 15 9.59769 15.4465 10.6006 16.2" stroke="white" stroke-width="1.5" stroke-linecap="round" stroke-linejoin="round"/>
<path d="M39.2266 16.4922H46.2695V22.5742C45.832 23.1133 45.2812 23.5742 44.6172 23.957C43.9609 24.3398 43.2305 24.6328 42.4258 24.8359C41.6211 25.0312 40.7695 25.1289 39.8711 25.1289C38.293 25.1289 36.9375 24.8008 35.8047 24.1445C34.6719 23.4883 33.8008 22.543 33.1914 21.3086C32.582 20.0664 32.2773 18.5859 32.2773 16.8672C32.2773 15.1641 32.5742 13.6875 33.168 12.4375C33.7695 11.1875 34.6133 10.2227 35.6992 9.54297C36.793 8.85547 38.0742 8.51172 39.543 8.51172C40.9805 8.51172 42.2383 8.89453 43.3164 9.66016C44.3945 10.4258 45.1797 11.4922 45.6719 12.8594L43.9727 13.5273C43.6133 12.5352 43.043 11.7617 42.2617 11.207C41.4805 10.6445 40.5703 10.3633 39.5312 10.3633C37.9375 10.3633 36.6914 10.9375 35.793 12.0859C34.8945 13.2266 34.4453 14.8203 34.4453 16.8672C34.4453 18.9766 34.9023 20.5703 35.8164 21.6484C36.7383 22.7266 38.1016 23.2656 39.9062 23.2656C40.3984 23.2656 40.918 23.2109 41.4648 23.1016C42.0195 22.9922 42.5352 22.8477 43.0117 22.668C43.4883 22.4805 43.8555 22.2852 44.1133 22.082V18.2266H39.2266V16.4922ZM50.7109 19.4688C50.7578 20.625 51.0703 21.5664 51.6484 22.293C52.2344 23.0117 53.0938 23.3711 54.2266 23.3711C55.0078 23.3711 55.6562 23.1914 56.1719 22.832C56.6953 22.4727 57.0664 22.0078 57.2852 21.4375L59.3242 21.8477C58.957 22.8867 58.3359 23.6953 57.4609 24.2734C56.5859 24.8438 55.4883 25.1289 54.168 25.1289C52.957 25.1289 51.9336 24.875 51.0977 24.3672C50.2695 23.8594 49.6367 23.1406 49.1992 22.2109C48.7695 21.2734 48.5547 20.1641 48.5547 18.8828C48.5547 17.5938 48.7734 16.4844 49.2109 15.5547C49.6562 14.625 50.2891 13.9102 51.1094 13.4102C51.9375 12.9023 52.9297 12.6484 54.0859 12.6484C55.1562 12.6484 56.0586 12.8242 56.793 13.1758C57.5273 13.5195 58.1133 14.0039 58.5508 14.6289C58.9883 15.2461 59.293 15.9688 59.4648 16.7969C59.6367 17.6172 59.6992 18.5078 59.6523 19.4688H50.7109ZM50.7344 17.9922H57.4727C57.4258 17.2578 57.2773 16.6211 57.0273 16.082C56.7852 15.543 56.4258 15.125 55.9492 14.8281C55.4727 14.5312 54.8555 14.3828 54.0977 14.3828C53.1211 14.3828 52.332 14.707 51.7305 15.3555C51.1367 16.0039 50.8047 16.8828 50.7344 17.9922ZM64.4102 25H62.2656V12.7539H64.3164L64.4102 16.1289V25ZM72.4961 17.0312V25H70.3516V17.3594C70.3516 16.5234 70.1328 15.8789 69.6953 15.4258C69.2656 14.9648 68.6641 14.7344 67.8906 14.7344C66.9766 14.7344 66.2148 15.0586 65.6055 15.707C65.0039 16.3477 64.6055 17.2734 64.4102 18.4844L63.9883 17.4766C64.0977 16.4766 64.3555 15.6172 64.7617 14.8984C65.168 14.1797 65.6875 13.625 66.3203 13.2344C66.9531 12.8438 67.668 12.6484 68.4648 12.6484C69.2773 12.6484 69.9844 12.832 70.5859 13.1992C71.1875 13.5586 71.6562 14.0664 71.9922 14.7227C72.3281 15.3789 72.4961 16.1484 72.4961 17.0312ZM75.6836 8.75781C75.6836 8.35156 75.8242 8.01172 76.1055 7.73828C76.3945 7.45703 76.75 7.31641 77.1719 7.31641C77.5938 7.31641 77.9453 7.45703 78.2266 7.73828C78.5078 8.01172 78.6484 8.35156 78.6484 8.75781C78.6484 9.16406 78.5078 9.51172 78.2266 9.80078C77.9453 10.0898 77.5938 10.2344 77.1719 10.2344C76.75 10.2344 76.3945 10.0898 76.1055 9.80078C75.8242 9.51172 75.6836 9.16406 75.6836 8.75781ZM76.0938 12.7539H78.25V25H76.0938V12.7539ZM84.0508 25H81.9062V7.92578H84.0508V25ZM92.1367 17.0312V25H89.9922V17.3594C89.9922 16.5234 89.7734 15.8789 89.3359 15.4258C88.9062 14.9648 88.3047 14.7344 87.5312 14.7344C86.6172 14.7344 85.8555 15.0586 85.2461 15.707C84.6445 16.3477 84.2461 17.2734 84.0508 18.4844L83.6289 17.4766C83.7383 16.4766 83.9961 15.6172 84.4023 14.8984C84.8086 14.1797 85.3281 13.625 85.9609 13.2344C86.5938 12.8438 87.3086 12.6484 88.1055 12.6484C88.918 12.6484 89.625 12.832 90.2266 13.1992C90.8281 13.5586 91.2969 14.0664 91.6328 14.7227C91.9688 15.3789 92.1367 16.1484 92.1367 17.0312ZM103.562 12.7539H105.707V25H103.656L103.562 21.625V12.7539ZM95.4766 20.7227V12.7539H97.6211V20.3945C97.6211 21.2305 97.8359 21.8789 98.2656 22.3398C98.7031 22.793 99.3086 23.0195 100.082 23.0195C100.996 23.0195 101.754 22.6992 102.355 22.0586C102.965 21.4102 103.367 20.4805 103.562 19.2695L103.984 20.2773C103.875 21.2695 103.617 22.1289 103.211 22.8555C102.805 23.5742 102.285 24.1289 101.652 24.5195C101.027 24.9102 100.312 25.1055 99.5078 25.1055C98.7031 25.1055 97.9961 24.9258 97.3867 24.5664C96.7852 24.1992 96.3164 23.6875 95.9805 23.0312C95.6445 22.3672 95.4766 21.5977 95.4766 20.7227ZM111.379 25H109.234V7.96094H111.379V25ZM119.676 18.8828C119.676 20.0859 119.488 21.1602 119.113 22.1055C118.746 23.043 118.211 23.7812 117.508 24.3203C116.812 24.8516 115.98 25.1172 115.012 25.1172C114.105 25.1172 113.281 24.8789 112.539 24.4023C111.805 23.9258 111.164 23.25 110.617 22.375L111.297 21.6953C111.68 22.25 112.141 22.668 112.68 22.9492C113.219 23.2305 113.766 23.3711 114.32 23.3711C115.25 23.3711 116.016 22.9766 116.617 22.1875C117.219 21.3984 117.52 20.2969 117.52 18.8828C117.52 17.4531 117.219 16.3477 116.617 15.5664C116.016 14.7852 115.25 14.3945 114.32 14.3945C113.766 14.3945 113.219 14.5352 112.68 14.8164C112.141 15.0977 111.68 15.5156 111.297 16.0703L110.617 15.3906C111.164 14.5078 111.805 13.832 112.539 13.3633C113.281 12.8867 114.105 12.6484 115.012 12.6484C115.98 12.6484 116.812 12.918 117.508 13.457C118.211 13.9883 118.746 14.7227 119.113 15.6602C119.488 16.5977 119.676 17.6719 119.676 18.8828Z" fill="white"/>
</svg>
