<svg width="36" height="36" viewBox="0 0 36 36" fill="none" xmlns="http://www.w3.org/2000/svg">
<path d="M18 35C27.3888 35 35 27.3888 35 18C35 8.61116 27.3888 1 18 1C8.61116 1 1 8.61116 1 18C1 27.3888 8.61116 35 18 35Z" stroke="white" stroke-width="2"/>
<path d="M10.3501 26.5C14.314 22.3483 21.6435 22.1528 25.6501 26.5M22.2418 13.75C22.2418 16.0972 20.3362 18 17.9856 18C15.6352 18 13.7296 16.0972 13.7296 13.75C13.7296 11.4028 15.6352 9.5 17.9856 9.5C20.3362 9.5 22.2418 11.4028 22.2418 13.75Z" stroke="white" stroke-width="2" stroke-linecap="round"/>
</svg>
